<?xml version="1.0" encoding="utf-8"?>
<!-- Generator: Adobe Illustrator 23.0.5, SVG Export Plug-In . SVG Version: 6.00 Build 0)  -->
<svg version="1.1" id="Layer_1" xmlns="http://www.w3.org/2000/svg" xmlns:xlink="http://www.w3.org/1999/xlink" x="0px" y="0px"
	 viewBox="0 0 40.5 40.7" style="enable-background:new 0 0 40.5 40.7;" xml:space="preserve">
<style type="text/css">
	.st0{fill-rule:evenodd;clip-rule:evenodd;fill:#FFFFFF;}
</style>
<path class="st0" d="M26.6,40c-1,0.1-1.4-0.4-1.4-1c0-0.7,0-2.9,0-5.6c0-1.9-0.7-3.1-1.4-3.8c4.5-0.6,9.2-2.2,9.2-10
	c0-2.2-0.8-4-2.1-5.4c0.1-0.6,1-2.6-0.1-5.4c0,0-1.7-0.6-5.6,2.1c-1.5-0.4-3.2-0.7-5-0.7c-1.7,0-3.3,0.3-5,0.7
	c-3.9-2.6-5.6-2.1-5.6-2.1c-1.1,2.8-0.4,4.9-0.1,5.4c-1.3,1.4-2.1,3.2-2.1,5.4c0,7.8,4.6,9.5,9,10c-0.6,0.6-1.1,1.4-1.3,2.8
	c-1.1,0.6-4,1.4-5.8-1.7C9,30,7.9,28.5,6.4,28.6c-1.7,0-0.7,1,0,1.4c0.8,0.4,1.8,2.2,2.1,2.9c0.4,1.1,1.7,3.3,6.7,2.4
	c0,1.7,0,3.3,0,3.8c0,0.6-0.4,1.1-1.4,1C5.9,37.5,0.2,29.9,0.2,21c0-11.4,8.9-20.5,20-20.5s20,9,20,20.3
	C40.3,29.7,34.6,37.4,26.6,40z"/>
</svg>
